<?xml version="1.0" encoding="utf-8"?>
<!-- Generator: Adobe Illustrator 16.0.4, SVG Export Plug-In . SVG Version: 6.00 Build 0)  -->
<!DOCTYPE svg PUBLIC "-//W3C//DTD SVG 1.1//EN" "http://www.w3.org/Graphics/SVG/1.1/DTD/svg11.dtd">
<svg version="1.1" id="Layer_1" xmlns="http://www.w3.org/2000/svg" xmlns:xlink="http://www.w3.org/1999/xlink" x="0px" y="0px"
	 width="205.667px" height="168.333px" viewBox="-8 9.5 205.667 168.333" enable-background="new -8 9.5 205.667 168.333"
	 xml:space="preserve">
<text transform="matrix(1 0 0 1 20.5737 125.2734)" fill="#FFFFFF" font-family="'Helvetica-Bold'" font-size="36.6428">WINTER</text>
<rect x="91.605" y="43.101" fill="#FFFFFF" width="2.743" height="42.281"/>
<rect x="52.066" y="82.64" fill="#FFFFFF" width="81.822" height="2.742"/>
<rect x="77.336" y="49.014" transform="matrix(0.7069 -0.7073 0.7073 0.7069 -26.261 76.1082)" fill="#FFFFFF" width="2.743" height="41.458"/>
<rect x="105.873" y="49.006" transform="matrix(-0.7067 -0.7076 0.7076 -0.7067 133.6789 194.9175)" fill="#FFFFFF" width="2.742" height="41.485"/>
<g>
	
		<rect x="88.357" y="37.15" transform="matrix(0.7071 -0.7071 0.7071 0.7071 -2.7206 75.4602)" fill="#FFFFFF" width="2.743" height="7.729"/>
	
		<rect x="94.812" y="37.151" transform="matrix(-0.707 -0.7072 0.7072 -0.707 135.1802 138.0347)" fill="#FFFFFF" width="2.743" height="7.729"/>
</g>
<g>
	
		<rect x="88.174" y="46.228" transform="matrix(0.7069 -0.7073 0.7073 0.7069 -9.1863 78.0147)" fill="#FFFFFF" width="2.742" height="7.728"/>
	
		<rect x="94.624" y="46.226" transform="matrix(-0.7068 -0.7075 0.7075 -0.7068 128.4032 153.4034)" fill="#FFFFFF" width="2.741" height="7.728"/>
</g>
<g>
	
		<rect x="88.381" y="55.935" transform="matrix(0.7071 -0.7071 0.7071 0.7071 -15.9959 80.9791)" fill="#FFFFFF" width="2.743" height="7.727"/>
	
		<rect x="94.83" y="55.931" transform="matrix(-0.7072 -0.707 0.707 -0.7072 121.9586 170.0988)" fill="#FFFFFF" width="2.744" height="7.729"/>
</g>
<g>
	<rect x="56.441" y="54.521" fill="#FFFFFF" width="7.727" height="2.743"/>
	<rect x="63.494" y="47.47" fill="#FFFFFF" width="2.742" height="7.729"/>
</g>
<g>
	<rect x="63.135" y="61.473" fill="#FFFFFF" width="7.728" height="2.742"/>
	<rect x="70.188" y="54.422" fill="#FFFFFF" width="2.743" height="7.728"/>
</g>
<g>
	<rect x="70.337" y="68.724" fill="#FFFFFF" width="7.728" height="2.742"/>
	<rect x="77.39" y="61.672" fill="#FFFFFF" width="2.743" height="7.729"/>
</g>
<g>
	<rect x="121.81" y="54.521" fill="#FFFFFF" width="7.729" height="2.743"/>
	<rect x="119.741" y="47.47" fill="#FFFFFF" width="2.742" height="7.729"/>
</g>
<g>
	<rect x="115.276" y="61.422" fill="#FFFFFF" width="7.727" height="2.744"/>
	<rect x="113.208" y="54.372" fill="#FFFFFF" width="2.742" height="7.728"/>
</g>
<g>
	<rect x="108.386" y="68.063" fill="#FFFFFF" width="7.729" height="2.742"/>
	<rect x="106.318" y="61.012" fill="#FFFFFF" width="2.743" height="7.728"/>
</g>
<g>
	
		<rect x="134.362" y="83.025" transform="matrix(0.6426 -0.7662 0.7662 0.6426 -18.0634 135.0527)" fill="#FFFFFF" width="2.742" height="7.727"/>
	
		<rect x="133.801" y="76.604" transform="matrix(0.7663 0.6425 -0.6425 0.7663 83.2982 -68.0431)" fill="#FFFFFF" width="2.743" height="7.729"/>
</g>
<g>
	
		<rect x="123.262" y="83.182" transform="matrix(0.643 -0.7659 0.7659 0.643 -22.1721 126.525)" fill="#FFFFFF" width="2.743" height="7.727"/>
	
		<rect x="122.701" y="76.762" transform="matrix(0.7663 0.6425 -0.6425 0.7663 80.8048 -60.8746)" fill="#FFFFFF" width="2.743" height="7.729"/>
</g>
<g>
	
		<rect x="112.888" y="83.052" transform="matrix(0.6423 -0.7664 0.7664 0.6423 -25.7487 118.6581)" fill="#FFFFFF" width="2.743" height="7.729"/>
	
		<rect x="112.327" y="76.633" transform="matrix(0.7663 0.6425 -0.6425 0.7663 78.2972 -54.2391)" fill="#FFFFFF" width="2.743" height="7.727"/>
</g>
<g>
	
		<rect x="49.19" y="82.861" transform="matrix(-0.6426 -0.7662 0.7662 -0.6426 16.6072 181.1948)" fill="#FFFFFF" width="2.743" height="7.727"/>
	
		<rect x="49.753" y="76.434" transform="matrix(-0.7662 0.6426 -0.6426 -0.7662 141.897 108.9662)" fill="#FFFFFF" width="2.743" height="7.728"/>
</g>
<g>
	
		<rect x="60.127" y="82.858" transform="matrix(-0.6425 -0.7662 0.7662 -0.6425 34.5646 189.5668)" fill="#FFFFFF" width="2.743" height="7.727"/>
	
		<rect x="60.691" y="76.431" transform="matrix(-0.7662 0.6426 -0.6426 -0.7662 161.2126 101.9322)" fill="#FFFFFF" width="2.743" height="7.728"/>
</g>
<g>
	
		<rect x="71.346" y="83.056" transform="matrix(-0.6426 -0.7662 0.7662 -0.6426 52.8546 198.4926)" fill="#FFFFFF" width="2.744" height="7.728"/>
	
		<rect x="71.91" y="76.63" transform="matrix(-0.7662 0.6426 -0.6426 -0.7662 181.1556 95.0738)" fill="#FFFFFF" width="2.743" height="7.728"/>
</g>
<circle fill="#FFFFFF" cx="92.977" cy="32.965" r="2.362"/>
<circle fill="#FFFFFF" cx="57.482" cy="48.141" r="2.362"/>
<circle fill="#FFFFFF" cx="129.003" cy="48.108" r="2.362"/>
<circle fill="#FFFFFF" cx="143.302" cy="83.192" r="2.362"/>
<circle fill="#FFFFFF" cx="42.955" cy="83.553" r="2.362"/>
<g>
	<text transform="matrix(1 0 0 1 19.0977 155.7959)" fill="#FFFFFF" font-family="'Helvetica-Bold'" font-size="31.4023">APPAREL</text>
</g>
</svg>
