<?xml version="1.0" encoding="utf-8"?>
<!-- Generator: Adobe Illustrator 16.0.4, SVG Export Plug-In . SVG Version: 6.00 Build 0)  -->
<!DOCTYPE svg PUBLIC "-//W3C//DTD SVG 1.1//EN" "http://www.w3.org/Graphics/SVG/1.1/DTD/svg11.dtd">
<svg version="1.1" id="Layer_1" xmlns="http://www.w3.org/2000/svg" xmlns:xlink="http://www.w3.org/1999/xlink" x="0px" y="0px"
	 width="392.98px" height="194.99px" viewBox="0 0 392.98 194.99" enable-background="new 0 0 392.98 194.99" xml:space="preserve">
<text transform="matrix(1 0 0 1 5.8989 182.8896)" fill="#FFFFFF" font-family="'Helvetica-Bold'" font-size="42.8075">WINTER APPAREL</text>
<g>
	<rect x="183.074" y="30.136" fill="#FFFFFF" width="6" height="92.5"/>
	<rect x="96.574" y="116.636" fill="#FFFFFF" width="179" height="6"/>
	
		<rect x="151.855" y="43.067" transform="matrix(0.7072 -0.707 0.707 0.7072 -17.1689 135.376)" fill="#FFFFFF" width="6.001" height="90.699"/>
	
		<rect x="214.272" y="43.058" transform="matrix(-0.7071 -0.7071 0.7071 -0.7071 308.3827 304.6038)" fill="#FFFFFF" width="6" height="90.761"/>
	<g>
		
			<rect x="175.973" y="17.126" transform="matrix(0.7071 -0.7071 0.7071 0.7071 34.3263 134.0369)" fill="#FFFFFF" width="6" height="16.907"/>
		
			<rect x="190.079" y="17.129" transform="matrix(-0.707 -0.7072 0.7072 -0.707 311.4988 180.2121)" fill="#FFFFFF" width="6" height="16.907"/>
	</g>
	<g>
		
			<rect x="176.021" y="54.709" transform="matrix(0.7071 -0.7071 0.7071 0.7071 7.7663 145.0771)" fill="#FFFFFF" width="6" height="16.907"/>
		
			<rect x="190.126" y="54.712" transform="matrix(-0.7071 -0.7071 0.7071 -0.7071 285.0227 244.3913)" fill="#FFFFFF" width="6.001" height="16.908"/>
	</g>
	<g>
		<rect x="106.146" y="55.121" fill="#FFFFFF" width="16.906" height="6"/>
		<rect x="121.575" y="39.696" fill="#FFFFFF" width="6" height="16.907"/>
	</g>
	<g>
		<rect x="134.585" y="83.558" fill="#FFFFFF" width="16.906" height="6"/>
		<rect x="150.014" y="68.132" fill="#FFFFFF" width="6" height="16.907"/>
	</g>
	<g>
		<rect x="249.15" y="55.121" fill="#FFFFFF" width="16.906" height="6"/>
		<rect x="244.627" y="39.696" fill="#FFFFFF" width="6" height="16.907"/>
	</g>
	<g>
		<rect x="221.232" y="83.301" fill="#FFFFFF" width="16.906" height="6"/>
		<rect x="216.709" y="67.875" fill="#FFFFFF" width="6" height="16.907"/>
	</g>
	<g>
		
			<rect x="276.609" y="117.489" transform="matrix(0.6426 -0.7662 0.7662 0.6426 3.4267 259.2326)" fill="#FFFFFF" width="6.001" height="16.907"/>
		
			<rect x="275.376" y="103.438" transform="matrix(0.7662 0.6426 -0.6426 0.7662 136.9956 -152.7301)" fill="#FFFFFF" width="6" height="16.907"/>
	</g>
	<g>
		
			<rect x="234.418" y="117.544" transform="matrix(0.6426 -0.7662 0.7662 0.6426 -11.679 226.9577)" fill="#FFFFFF" width="6" height="16.906"/>
		
			<rect x="233.185" y="103.492" transform="matrix(0.7662 0.6426 -0.6426 0.7662 127.1701 -125.6068)" fill="#FFFFFF" width="6.001" height="16.907"/>
	</g>
	<g>
		
			<rect x="90.284" y="117.119" transform="matrix(-0.6426 -0.7662 0.7662 -0.6426 57.0146 277.7404)" fill="#FFFFFF" width="6.001" height="16.907"/>
		
			<rect x="91.517" y="103.068" transform="matrix(-0.7661 0.6427 -0.6427 -0.7661 238.6036 136.2162)" fill="#FFFFFF" width="6.001" height="16.907"/>
	</g>
	<g>
		
			<rect x="132.4" y="117.119" transform="matrix(-0.6426 -0.7662 0.7662 -0.6426 126.1946 310.01)" fill="#FFFFFF" width="6.001" height="16.907"/>
		
			<rect x="133.634" y="103.068" transform="matrix(-0.7661 0.6427 -0.6427 -0.7661 312.9863 109.1487)" fill="#FFFFFF" width="6.001" height="16.907"/>
	</g>
	<circle fill="#FFFFFF" cx="186.074" cy="13.042" r="5.167"/>
	<circle fill="#FFFFFF" cx="111.312" cy="44.053" r="5.167"/>
	<circle fill="#FFFFFF" cx="262" cy="43.982" r="5.167"/>
	<circle fill="#FFFFFF" cx="293.276" cy="117.842" r="5.167"/>
	<circle fill="#FFFFFF" cx="79.531" cy="118.635" r="5.167"/>
</g>
</svg>
