<?xml version="1.0" encoding="utf-8"?>
<!-- Generator: Adobe Illustrator 16.0.4, SVG Export Plug-In . SVG Version: 6.00 Build 0)  -->
<!DOCTYPE svg PUBLIC "-//W3C//DTD SVG 1.1//EN" "http://www.w3.org/Graphics/SVG/1.1/DTD/svg11.dtd">
<svg version="1.1" id="Layer_1" xmlns="http://www.w3.org/2000/svg" xmlns:xlink="http://www.w3.org/1999/xlink" x="0px" y="0px"
	 width="177px" height="178px" viewBox="103.99 23.995 177 178" enable-background="new 103.99 23.995 177 178"
	 xml:space="preserve">
<text transform="matrix(1 0 0 1 111.9294 155.5117)" fill="#FFFFFF" font-family="'Helvetica-Bold'" font-size="40.7701">WINTER</text>
<g>
	<rect x="187.217" y="48.454" fill="#FFFFFF" width="4.156" height="64.062"/>
	<rect x="127.31" y="108.361" fill="#FFFFFF" width="123.969" height="4.154"/>
	
		<rect x="165.596" y="57.413" transform="matrix(-0.7071 0.7071 -0.7071 -0.7071 349.0423 33.063)" fill="#FFFFFF" width="4.156" height="62.815"/>
	
		<rect x="208.833" y="57.402" transform="matrix(0.7071 0.7071 -0.7071 0.7071 124.5871 -123.1182)" fill="#FFFFFF" width="4.156" height="62.858"/>
	<g>
		
			<rect x="182.293" y="39.439" transform="matrix(-0.7071 0.7071 -0.7071 -0.7071 346.7686 -53.0489)" fill="#FFFFFF" width="4.156" height="11.709"/>
		
			<rect x="192.072" y="39.445" transform="matrix(0.707 0.7072 -0.7072 0.707 88.9245 -124.0342)" fill="#FFFFFF" width="4.156" height="11.709"/>
	</g>
	<g>
		
			<rect x="182.327" y="65.467" transform="matrix(-0.707 0.7072 -0.7072 -0.707 365.2238 -8.6559)" fill="#FFFFFF" width="4.155" height="11.709"/>
		
			<rect x="192.101" y="65.475" transform="matrix(0.707 0.7072 -0.7072 0.707 107.3431 -116.4277)" fill="#FFFFFF" width="4.156" height="11.71"/>
	</g>
	<g>
		<rect x="133.939" y="65.758" fill="#FFFFFF" width="11.708" height="4.156"/>
		<rect x="144.624" y="55.075" fill="#FFFFFF" width="4.156" height="11.709"/>
	</g>
	<g>
		<rect x="153.635" y="85.453" fill="#FFFFFF" width="11.709" height="4.155"/>
		<rect x="164.321" y="74.769" fill="#FFFFFF" width="4.155" height="11.71"/>
	</g>
	<g>
		<rect x="232.978" y="65.758" fill="#FFFFFF" width="11.709" height="4.156"/>
		<rect x="229.845" y="55.075" fill="#FFFFFF" width="4.155" height="11.709"/>
	</g>
	<g>
		<rect x="213.643" y="85.274" fill="#FFFFFF" width="11.709" height="4.155"/>
		<rect x="210.51" y="74.591" fill="#FFFFFF" width="4.155" height="11.709"/>
	</g>
	<g>
		
			<rect x="251.99" y="108.941" transform="matrix(-0.6427 0.7661 -0.7661 -0.6427 505.3082 -6.064)" fill="#FFFFFF" width="4.156" height="11.709"/>
		
			<rect x="251.148" y="99.217" transform="matrix(-0.7662 -0.6426 0.6426 -0.7662 379.7278 348.3008)" fill="#FFFFFF" width="4.156" height="11.709"/>
	</g>
	
		<rect x="221.932" y="99.253" transform="matrix(-0.7663 -0.6425 0.6425 -0.7663 328.1418 329.5726)" fill="#FFFFFF" width="4.156" height="11.709"/>
	<g>
		
			<rect x="122.953" y="108.696" transform="matrix(0.6426 0.7662 -0.7662 0.6426 132.4531 -54.859)" fill="#FFFFFF" width="4.156" height="11.708"/>
		
			<rect x="123.808" y="98.967" transform="matrix(0.7661 -0.6427 0.6427 0.7661 -37.9264 105.4158)" fill="#FFFFFF" width="4.156" height="11.709"/>
	</g>
	
		<rect x="152.978" y="98.97" transform="matrix(0.7663 -0.6425 0.6425 0.7663 -31.1099 124.1285)" fill="#FFFFFF" width="4.155" height="11.708"/>
	<circle fill="#FFFFFF" cx="189.295" cy="36.616" r="3.579"/>
	<circle fill="#FFFFFF" cx="137.517" cy="58.093" r="3.579"/>
	<circle fill="#FFFFFF" cx="241.878" cy="58.044" r="3.578"/>
	<circle fill="#FFFFFF" cx="263.54" cy="109.197" r="3.579"/>
	<circle fill="#FFFFFF" cx="115.507" cy="109.745" r="3.578"/>
</g>
<g>
	<text transform="matrix(1 0 0 1 110.2869 189.4727)" fill="#FFFFFF" font-family="'Helvetica-Bold'" font-size="34.9393">APPAREL</text>
</g>
</svg>
